<svg id="visual" viewBox="0 0 900 600" width="900" height="600" xmlns="http://www.w3.org/2000/svg" xmlns:xlink="http://www.w3.org/1999/xlink" version="1.1"><rect x="0" y="0" width="900" height="600" fill="#fff"></rect><defs><linearGradient id="grad1_0" x1="33.3%" y1="0%" x2="100%" y2="100%"><stop offset="20%" stop-color="#0078f0" stop-opacity="1"></stop><stop offset="80%" stop-color="#0078f0" stop-opacity="1"></stop></linearGradient></defs><defs><linearGradient id="grad1_1" x1="33.3%" y1="0%" x2="100%" y2="100%"><stop offset="20%" stop-color="#0078f0" stop-opacity="1"></stop><stop offset="80%" stop-color="#558af3" stop-opacity="1"></stop></linearGradient></defs><defs><linearGradient id="grad1_2" x1="33.3%" y1="0%" x2="100%" y2="100%"><stop offset="20%" stop-color="#7b9cf5" stop-opacity="1"></stop><stop offset="80%" stop-color="#558af3" stop-opacity="1"></stop></linearGradient></defs><defs><linearGradient id="grad1_3" x1="33.3%" y1="0%" x2="100%" y2="100%"><stop offset="20%" stop-color="#7b9cf5" stop-opacity="1"></stop><stop offset="80%" stop-color="#9aaff8" stop-opacity="1"></stop></linearGradient></defs><defs><linearGradient id="grad1_4" x1="33.3%" y1="0%" x2="100%" y2="100%"><stop offset="20%" stop-color="#b5c2fa" stop-opacity="1"></stop><stop offset="80%" stop-color="#9aaff8" stop-opacity="1"></stop></linearGradient></defs><defs><linearGradient id="grad1_5" x1="33.3%" y1="0%" x2="100%" y2="100%"><stop offset="20%" stop-color="#b5c2fa" stop-opacity="1"></stop><stop offset="80%" stop-color="#cfd6fc" stop-opacity="1"></stop></linearGradient></defs><defs><linearGradient id="grad1_6" x1="33.3%" y1="0%" x2="100%" y2="100%"><stop offset="20%" stop-color="#e7eafe" stop-opacity="1"></stop><stop offset="80%" stop-color="#cfd6fc" stop-opacity="1"></stop></linearGradient></defs><defs><linearGradient id="grad1_7" x1="33.3%" y1="0%" x2="100%" y2="100%"><stop offset="20%" stop-color="#e7eafe" stop-opacity="1"></stop><stop offset="80%" stop-color="#ffffff" stop-opacity="1"></stop></linearGradient></defs><defs><linearGradient id="grad2_0" x1="0%" y1="0%" x2="66.7%" y2="100%"><stop offset="20%" stop-color="#0078f0" stop-opacity="1"></stop><stop offset="80%" stop-color="#0078f0" stop-opacity="1"></stop></linearGradient></defs><defs><linearGradient id="grad2_1" x1="0%" y1="0%" x2="66.7%" y2="100%"><stop offset="20%" stop-color="#558af3" stop-opacity="1"></stop><stop offset="80%" stop-color="#0078f0" stop-opacity="1"></stop></linearGradient></defs><defs><linearGradient id="grad2_2" x1="0%" y1="0%" x2="66.7%" y2="100%"><stop offset="20%" stop-color="#558af3" stop-opacity="1"></stop><stop offset="80%" stop-color="#7b9cf5" stop-opacity="1"></stop></linearGradient></defs><defs><linearGradient id="grad2_3" x1="0%" y1="0%" x2="66.7%" y2="100%"><stop offset="20%" stop-color="#9aaff8" stop-opacity="1"></stop><stop offset="80%" stop-color="#7b9cf5" stop-opacity="1"></stop></linearGradient></defs><defs><linearGradient id="grad2_4" x1="0%" y1="0%" x2="66.7%" y2="100%"><stop offset="20%" stop-color="#9aaff8" stop-opacity="1"></stop><stop offset="80%" stop-color="#b5c2fa" stop-opacity="1"></stop></linearGradient></defs><defs><linearGradient id="grad2_5" x1="0%" y1="0%" x2="66.7%" y2="100%"><stop offset="20%" stop-color="#cfd6fc" stop-opacity="1"></stop><stop offset="80%" stop-color="#b5c2fa" stop-opacity="1"></stop></linearGradient></defs><defs><linearGradient id="grad2_6" x1="0%" y1="0%" x2="66.7%" y2="100%"><stop offset="20%" stop-color="#cfd6fc" stop-opacity="1"></stop><stop offset="80%" stop-color="#e7eafe" stop-opacity="1"></stop></linearGradient></defs><defs><linearGradient id="grad2_7" x1="0%" y1="0%" x2="66.7%" y2="100%"><stop offset="20%" stop-color="#ffffff" stop-opacity="1"></stop><stop offset="80%" stop-color="#e7eafe" stop-opacity="1"></stop></linearGradient></defs><g transform="translate(900, 0)"><path d="M0 297.5C-40.8 295.4 -81.6 293.3 -113.8 274.8C-146 256.3 -169.6 221.5 -190.9 190.9C-212.2 160.3 -231.2 134 -248.5 102.9C-265.9 71.8 -281.7 35.9 -297.5 0L0 0Z" fill="#f3f5fe"></path><path d="M0 260.3C-35.7 258.5 -71.4 256.6 -99.6 240.5C-127.8 224.3 -148.4 193.8 -167.1 167.1C-185.7 140.3 -202.3 117.3 -217.5 90.1C-232.7 62.9 -246.5 31.4 -260.3 0L0 0Z" fill="#dbe0fd"></path><path d="M0 223.1C-30.6 221.5 -61.2 220 -85.4 206.1C-109.5 192.3 -127.2 166.1 -143.2 143.2C-159.1 120.3 -173.4 100.5 -186.4 77.2C-199.4 53.9 -211.3 26.9 -223.1 0L0 0Z" fill="#c2ccfb"></path><path d="M0 185.9C-25.5 184.6 -51 183.3 -71.1 171.8C-91.3 160.2 -106 138.4 -119.3 119.3C-132.6 100.2 -144.5 83.8 -155.3 64.3C-166.2 44.9 -176 22.4 -185.9 0L0 0Z" fill="#a8b8f9"></path><path d="M0 148.7C-20.4 147.7 -40.8 146.6 -56.9 137.4C-73 128.2 -84.8 110.7 -95.5 95.5C-106.1 80.2 -115.6 67 -124.3 51.5C-132.9 35.9 -140.8 18 -148.7 0L0 0Z" fill="#8ba5f7"></path><path d="M0 111.5C-15.3 110.8 -30.6 110 -42.7 103.1C-54.8 96.1 -63.6 83.1 -71.6 71.6C-79.6 60.1 -86.7 50.3 -93.2 38.6C-99.7 26.9 -105.6 13.5 -111.5 0L0 0Z" fill="#6993f4"></path><path d="M0 74.4C-10.2 73.8 -20.4 73.3 -28.5 68.7C-36.5 64.1 -42.4 55.4 -47.7 47.7C-53 40.1 -57.8 33.5 -62.1 25.7C-66.5 18 -70.4 9 -74.4 0L0 0Z" fill="#3b81f1"></path><path d="M0 37.2C-5.1 36.9 -10.2 36.7 -14.2 34.4C-18.3 32 -21.2 27.7 -23.9 23.9C-26.5 20 -28.9 16.8 -31.1 12.9C-33.2 9 -35.2 4.5 -37.2 0L0 0Z" fill="#0078f0"></path></g><g transform="translate(0, 600)"><path d="M0 -297.5C31.9 -268.7 63.8 -239.9 91.1 -219.9C118.4 -199.9 141.1 -188.8 174.7 -174.7C208.2 -160.5 252.5 -143.4 274.8 -113.8C297.1 -84.2 297.3 -42.1 297.5 0L0 0Z" fill="#f3f5fe"></path><path d="M0 -260.3C27.9 -235.1 55.8 -209.9 79.7 -192.4C103.6 -174.9 123.5 -165.2 152.8 -152.8C182.2 -140.5 221 -125.5 240.5 -99.6C259.9 -73.7 260.1 -36.8 260.3 0L0 0Z" fill="#dbe0fd"></path><path d="M0 -223.1C23.9 -201.5 47.8 -179.9 68.3 -164.9C88.8 -149.9 105.8 -141.6 131 -131C156.1 -120.4 189.4 -107.6 206.1 -85.4C222.8 -63.2 223 -31.6 223.1 0L0 0Z" fill="#c2ccfb"></path><path d="M0 -185.9C19.9 -167.9 39.9 -149.9 56.9 -137.4C74 -124.9 88.2 -118 109.2 -109.2C130.1 -100.3 157.8 -89.6 171.8 -71.1C185.7 -52.6 185.8 -26.3 185.9 0L0 0Z" fill="#a8b8f9"></path><path d="M0 -148.7C15.9 -134.3 31.9 -119.9 45.5 -109.9C59.2 -100 70.6 -94.4 87.3 -87.3C104.1 -80.3 126.3 -71.7 137.4 -56.9C148.5 -42.1 148.6 -21.1 148.7 0L0 0Z" fill="#8ba5f7"></path><path d="M0 -111.5C12 -100.7 23.9 -89.9 34.2 -82.5C44.4 -75 52.9 -70.8 65.5 -65.5C78.1 -60.2 94.7 -53.8 103.1 -42.7C111.4 -31.6 111.5 -15.8 111.5 0L0 0Z" fill="#6993f4"></path><path d="M0 -74.4C8 -67.2 15.9 -60 22.8 -55C29.6 -50 35.3 -47.2 43.7 -43.7C52 -40.1 63.1 -35.9 68.7 -28.5C74.3 -21.1 74.3 -10.5 74.4 0L0 0Z" fill="#3b81f1"></path><path d="M0 -37.2C4 -33.6 8 -30 11.4 -27.5C14.8 -25 17.6 -23.6 21.8 -21.8C26 -20.1 31.6 -17.9 34.4 -14.2C37.1 -10.5 37.2 -5.3 37.2 0L0 0Z" fill="#0078f0"></path></g></svg>