<svg id="visual" viewBox="0 0 450 900" width="450" height="900" xmlns="http://www.w3.org/2000/svg" xmlns:xlink="http://www.w3.org/1999/xlink" version="1.1"><rect x="0" y="0" width="450" height="900" fill="#fff"></rect><defs><linearGradient id="grad1_0" x1="0%" y1="0%" x2="100%" y2="100%"><stop offset="30%" stop-color="#0078f0" stop-opacity="1"></stop><stop offset="70%" stop-color="#0078f0" stop-opacity="1"></stop></linearGradient></defs><defs><linearGradient id="grad1_1" x1="0%" y1="0%" x2="100%" y2="100%"><stop offset="30%" stop-color="#0078f0" stop-opacity="1"></stop><stop offset="70%" stop-color="#558af3" stop-opacity="1"></stop></linearGradient></defs><defs><linearGradient id="grad1_2" x1="0%" y1="0%" x2="100%" y2="100%"><stop offset="30%" stop-color="#7b9cf5" stop-opacity="1"></stop><stop offset="70%" stop-color="#558af3" stop-opacity="1"></stop></linearGradient></defs><defs><linearGradient id="grad1_3" x1="0%" y1="0%" x2="100%" y2="100%"><stop offset="30%" stop-color="#7b9cf5" stop-opacity="1"></stop><stop offset="70%" stop-color="#9aaff8" stop-opacity="1"></stop></linearGradient></defs><defs><linearGradient id="grad1_4" x1="0%" y1="0%" x2="100%" y2="100%"><stop offset="30%" stop-color="#b5c2fa" stop-opacity="1"></stop><stop offset="70%" stop-color="#9aaff8" stop-opacity="1"></stop></linearGradient></defs><defs><linearGradient id="grad1_5" x1="0%" y1="0%" x2="100%" y2="100%"><stop offset="30%" stop-color="#b5c2fa" stop-opacity="1"></stop><stop offset="70%" stop-color="#cfd6fc" stop-opacity="1"></stop></linearGradient></defs><defs><linearGradient id="grad1_6" x1="0%" y1="0%" x2="100%" y2="100%"><stop offset="30%" stop-color="#e7eafe" stop-opacity="1"></stop><stop offset="70%" stop-color="#cfd6fc" stop-opacity="1"></stop></linearGradient></defs><defs><linearGradient id="grad1_7" x1="0%" y1="0%" x2="100%" y2="100%"><stop offset="30%" stop-color="#e7eafe" stop-opacity="1"></stop><stop offset="70%" stop-color="#ffffff" stop-opacity="1"></stop></linearGradient></defs><defs><linearGradient id="grad2_0" x1="0%" y1="0%" x2="100%" y2="100%"><stop offset="30%" stop-color="#0078f0" stop-opacity="1"></stop><stop offset="70%" stop-color="#0078f0" stop-opacity="1"></stop></linearGradient></defs><defs><linearGradient id="grad2_1" x1="0%" y1="0%" x2="100%" y2="100%"><stop offset="30%" stop-color="#558af3" stop-opacity="1"></stop><stop offset="70%" stop-color="#0078f0" stop-opacity="1"></stop></linearGradient></defs><defs><linearGradient id="grad2_2" x1="0%" y1="0%" x2="100%" y2="100%"><stop offset="30%" stop-color="#558af3" stop-opacity="1"></stop><stop offset="70%" stop-color="#7b9cf5" stop-opacity="1"></stop></linearGradient></defs><defs><linearGradient id="grad2_3" x1="0%" y1="0%" x2="100%" y2="100%"><stop offset="30%" stop-color="#9aaff8" stop-opacity="1"></stop><stop offset="70%" stop-color="#7b9cf5" stop-opacity="1"></stop></linearGradient></defs><defs><linearGradient id="grad2_4" x1="0%" y1="0%" x2="100%" y2="100%"><stop offset="30%" stop-color="#9aaff8" stop-opacity="1"></stop><stop offset="70%" stop-color="#b5c2fa" stop-opacity="1"></stop></linearGradient></defs><defs><linearGradient id="grad2_5" x1="0%" y1="0%" x2="100%" y2="100%"><stop offset="30%" stop-color="#cfd6fc" stop-opacity="1"></stop><stop offset="70%" stop-color="#b5c2fa" stop-opacity="1"></stop></linearGradient></defs><defs><linearGradient id="grad2_6" x1="0%" y1="0%" x2="100%" y2="100%"><stop offset="30%" stop-color="#cfd6fc" stop-opacity="1"></stop><stop offset="70%" stop-color="#e7eafe" stop-opacity="1"></stop></linearGradient></defs><defs><linearGradient id="grad2_7" x1="0%" y1="0%" x2="100%" y2="100%"><stop offset="30%" stop-color="#ffffff" stop-opacity="1"></stop><stop offset="70%" stop-color="#e7eafe" stop-opacity="1"></stop></linearGradient></defs><g transform="translate(450, 0)"><path d="M0 247.5C-35 246.9 -70 246.4 -94.7 228.7C-119.5 210.9 -134 176.1 -149.9 149.9C-165.8 123.7 -183.1 106.2 -199.6 82.7C-216.1 59.1 -231.8 29.6 -247.5 0L0 0Z" fill="#f3f5fe"></path><path d="M0 216.6C-30.6 216.1 -61.2 215.6 -82.9 200.1C-104.5 184.6 -117.3 154.1 -131.2 131.2C-145.1 108.3 -160.2 92.9 -174.6 72.3C-189 51.7 -202.8 25.9 -216.6 0L0 0Z" fill="#dbe0fd"></path><path d="M0 185.6C-26.2 185.2 -52.5 184.8 -71 171.5C-89.6 158.2 -100.5 132.1 -112.4 112.4C-124.4 92.8 -137.3 79.6 -149.7 62C-162 44.3 -173.8 22.2 -185.6 0L0 0Z" fill="#c2ccfb"></path><path d="M0 154.7C-21.9 154.3 -43.7 154 -59.2 142.9C-74.7 131.8 -83.8 110.1 -93.7 93.7C-103.6 77.3 -114.4 66.4 -124.7 51.7C-135 36.9 -144.9 18.5 -154.7 0L0 0Z" fill="#a8b8f9"></path><path d="M0 123.8C-17.5 123.5 -35 123.2 -47.4 114.3C-59.7 105.5 -67 88 -75 75C-82.9 61.9 -91.5 53.1 -99.8 41.3C-108 29.6 -115.9 14.8 -123.7 0L0 0Z" fill="#8ba5f7"></path><path d="M0 92.8C-13.1 92.6 -26.2 92.4 -35.5 85.7C-44.8 79.1 -50.3 66 -56.2 56.2C-62.2 46.4 -68.6 39.8 -74.8 31C-81 22.2 -86.9 11.1 -92.8 0L0 0Z" fill="#6993f4"></path><path d="M0 61.9C-8.7 61.7 -17.5 61.6 -23.7 57.2C-29.9 52.7 -33.5 44 -37.5 37.5C-41.5 30.9 -45.8 26.5 -49.9 20.7C-54 14.8 -57.9 7.4 -61.9 0L0 0Z" fill="#3b81f1"></path><path d="M0 30.9C-4.4 30.9 -8.7 30.8 -11.8 28.6C-14.9 26.4 -16.8 22 -18.7 18.7C-20.7 15.5 -22.9 13.3 -24.9 10.3C-27 7.4 -29 3.7 -30.9 0L0 0Z" fill="#0078f0"></path></g><g transform="translate(0, 900)"><path d="M0 -247.5C30.9 -236.6 61.8 -225.7 87.3 -210.6C112.7 -195.6 132.6 -176.4 157.7 -157.7C182.7 -139 212.8 -120.9 228.7 -94.7C244.5 -68.5 246 -34.3 247.5 0L0 0Z" fill="#f3f5fe"></path><path d="M0 -216.6C27 -207 54.1 -197.5 76.3 -184.3C98.6 -171.1 116.1 -154.3 138 -138C159.9 -121.6 186.2 -105.8 200.1 -82.9C213.9 -60 215.2 -30 216.6 0L0 0Z" fill="#dbe0fd"></path><path d="M0 -185.6C23.2 -177.5 46.4 -169.3 65.4 -158C84.5 -146.7 99.5 -132.3 118.3 -118.3C137 -104.3 159.6 -90.7 171.5 -71C183.4 -51.4 184.5 -25.7 185.6 0L0 0Z" fill="#c2ccfb"></path><path d="M0 -154.7C19.3 -147.9 38.6 -141.1 54.5 -131.7C70.4 -122.2 82.9 -110.2 98.6 -98.6C114.2 -86.9 133 -75.6 142.9 -59.2C152.8 -42.8 153.7 -21.4 154.7 0L0 0Z" fill="#a8b8f9"></path><path d="M0 -123.7C15.5 -118.3 30.9 -112.9 43.6 -105.3C56.3 -97.8 66.3 -88.2 78.8 -78.8C91.4 -69.5 106.4 -60.5 114.3 -47.4C122.2 -34.3 123 -17.1 123.8 0L0 0Z" fill="#8ba5f7"></path><path d="M0 -92.8C11.6 -88.7 23.2 -84.6 32.7 -79C42.3 -73.3 49.7 -66.1 59.1 -59.1C68.5 -52.1 79.8 -45.3 85.7 -35.5C91.7 -25.7 92.2 -12.8 92.8 0L0 0Z" fill="#6993f4"></path><path d="M0 -61.9C7.7 -59.2 15.5 -56.4 21.8 -52.7C28.2 -48.9 33.2 -44.1 39.4 -39.4C45.7 -34.8 53.2 -30.2 57.2 -23.7C61.1 -17.1 61.5 -8.6 61.9 0L0 0Z" fill="#3b81f1"></path><path d="M0 -30.9C3.9 -29.6 7.7 -28.2 10.9 -26.3C14.1 -24.4 16.6 -22 19.7 -19.7C22.8 -17.4 26.6 -15.1 28.6 -11.8C30.6 -8.6 30.7 -4.3 30.9 0L0 0Z" fill="#0078f0"></path></g></svg>